<?xml version="1.0" encoding="UTF-8" standalone="no"?><!DOCTYPE svg PUBLIC "-//W3C//DTD SVG 1.1//EN" "http://www.w3.org/Graphics/SVG/1.1/DTD/svg11.dtd"><svg width="100%" height="100%" viewBox="0 0 3601 1259" version="1.1" xmlns="http://www.w3.org/2000/svg" xmlns:xlink="http://www.w3.org/1999/xlink" xml:space="preserve" xmlns:serif="http://www.serif.com/" style="fill-rule:evenodd;clip-rule:evenodd;stroke-linejoin:round;stroke-miterlimit:2;"><g><path d="M475.646,0l0,552.023l-125.475,0l0,-372.675l-50.122,372.675l-88.992,0l-52.849,-364.151l0,364.151l-125.475,0l0,-552.023l185.826,0c5.455,33.187 11.252,72.285 17.389,117.292l19.776,140.478l32.733,-257.77l187.189,0Z" style="fill-rule:nonzero;"/><path d="M840.82,258.452l0,110.813c0,40.689 -2.046,70.523 -6.137,89.504c-4.092,18.98 -12.843,36.71 -26.255,53.19c-13.411,16.48 -30.63,28.641 -51.656,36.483c-21.026,7.843 -45.178,11.764 -72.455,11.764c-30.46,0 -56.259,-3.353 -77.399,-10.059c-21.14,-6.705 -37.563,-16.821 -49.27,-30.346c-11.706,-13.525 -20.06,-29.891 -25.06,-49.099c-5.001,-19.207 -7.502,-48.019 -7.502,-86.434l0,-115.928c0,-42.053 4.547,-74.899 13.639,-98.539c9.092,-23.641 25.459,-42.621 49.099,-56.942c23.64,-14.32 53.872,-21.48 90.697,-21.48c30.914,0 57.452,4.603 79.615,13.809c22.163,9.206 39.268,21.196 51.315,35.972c12.048,14.775 20.288,30.005 24.72,45.689c4.433,15.684 6.649,39.552 6.649,71.603Zm-137.75,-34.097c0,-23.186 -1.25,-37.79 -3.75,-43.814c-2.501,-6.024 -7.843,-9.036 -16.026,-9.036c-8.183,0 -13.638,3.012 -16.366,9.036c-2.728,6.024 -4.092,20.628 -4.092,43.814l0,204.238c0,21.367 1.364,35.29 4.092,41.768c2.728,6.479 8.069,9.718 16.025,9.718c8.183,0 13.582,-2.955 16.196,-8.865c2.614,-5.91 3.921,-18.64 3.921,-38.188l0,-208.671Z" style="fill-rule:nonzero;"/><path d="M1023.92,99.562l-5.455,59.328c20.003,-42.507 48.985,-65.011 86.946,-67.511l0,159.23c-25.231,0 -43.757,3.41 -55.577,10.229c-11.82,6.82 -19.094,16.31 -21.822,28.471c-2.728,12.161 -4.092,40.177 -4.092,84.048l0,178.666l-137.75,0l0,-452.461l137.75,0Z" style="fill-rule:nonzero;"/><path d="M1449.1,99.562l0,348.466c0,47.053 -1.08,77.456 -3.239,91.208c-2.16,13.753 -9.831,28.3 -23.015,43.644c-13.184,15.343 -31.54,27.05 -55.066,35.119c-23.527,8.07 -53.134,12.105 -88.822,12.105c-43.871,0 -79.104,-7.445 -105.699,-22.334c-26.595,-14.888 -40.347,-44.155 -41.257,-87.798l133.659,0c0,20.003 7.274,30.005 21.821,30.005c10.457,0 17.39,-3.069 20.799,-9.206c3.41,-6.138 5.115,-18.981 5.115,-38.529l0,-34.097c-11.82,10.684 -24.266,18.753 -37.336,24.209c-13.07,5.455 -26.766,8.183 -41.086,8.183c-24.777,0 -45.178,-5.001 -61.203,-15.003c-16.026,-10.001 -26.994,-23.128 -32.904,-39.381c-5.91,-16.253 -8.865,-39.382 -8.865,-69.387l0,-164.345c0,-42.961 7.729,-73.875 23.186,-92.742c15.457,-18.867 38.984,-28.3 70.58,-28.3c17.275,0 33.016,3.523 47.223,10.57c14.207,7.046 26.88,17.616 38.018,31.709l9.888,-34.096l128.203,0Zm-138.091,120.02c0,-20.686 -1.193,-33.87 -3.58,-39.552c-2.387,-5.683 -7.672,-8.525 -15.855,-8.525c-7.956,0 -13.582,3.24 -16.878,9.718c-3.296,6.478 -4.944,19.265 -4.944,38.359l0,152.07c0,20.231 1.25,33.358 3.751,39.381c2.5,6.024 7.728,9.036 15.684,9.036c9.093,0 15.003,-3.637 17.73,-10.911c2.728,-7.274 4.092,-23.754 4.092,-49.44l0,-140.136Z" style="fill-rule:nonzero;"/><path d="M1621.29,274.818l-129.226,0l0,-30.346c0,-35.006 4.035,-61.999 12.105,-80.979c8.069,-18.981 24.265,-35.745 48.587,-50.293c24.322,-14.547 55.919,-21.821 94.789,-21.821c46.598,0 81.718,8.24 105.358,24.72c23.64,16.48 37.847,36.71 42.62,60.691c4.774,23.982 7.161,73.365 7.161,148.15l0,227.083l-134,0l0,-40.234c-8.41,16.139 -19.264,28.243 -32.562,36.312c-13.297,8.07 -29.152,12.105 -47.564,12.105c-24.095,0 -46.201,-6.763 -66.318,-20.288c-20.117,-13.525 -30.176,-43.132 -30.176,-88.821l0,-37.165c0,-33.87 5.342,-56.941 16.026,-69.216c10.683,-12.275 37.165,-26.596 79.445,-42.962c45.234,-17.73 69.443,-29.664 72.625,-35.801c3.183,-6.138 4.774,-18.64 4.774,-37.506c0,-23.641 -1.762,-39.041 -5.285,-46.201c-3.523,-7.16 -9.377,-10.741 -17.56,-10.741c-9.32,0 -15.116,3.012 -17.389,9.036c-2.273,6.024 -3.41,21.651 -3.41,46.883l0,47.394Zm43.644,62.056c-22.049,16.139 -34.835,29.664 -38.359,40.574c-3.523,10.911 -5.285,26.596 -5.285,47.054c0,23.413 1.535,38.529 4.603,45.348c3.069,6.819 9.15,10.229 18.242,10.229c8.638,0 14.264,-2.671 16.878,-8.013c2.614,-5.342 3.921,-19.378 3.921,-42.109l0,-93.083Z" style="fill-rule:nonzero;"/><path d="M1990.21,99.562l-2.387,41.598c10.001,-16.594 22.219,-29.039 36.654,-37.336c14.434,-8.297 31.084,-12.445 49.951,-12.445c23.64,0 42.962,5.569 57.964,16.707c15.003,11.138 24.663,25.175 28.982,42.109c4.319,16.935 6.478,45.178 6.478,84.73l0,317.098l-137.75,0l0,-313.347c0,-31.142 -1.022,-50.122 -3.068,-56.942c-2.046,-6.819 -7.729,-10.229 -17.048,-10.229c-9.775,0 -15.912,3.922 -18.413,11.764c-2.5,7.842 -3.75,28.811 -3.75,62.908l0,305.846l-137.75,0l0,-452.461l140.137,0Z" style="fill-rule:nonzero;"/><path d="M373.698,698.297l-72.967,552.022l-217.876,0l-82.855,-552.022l151.389,0c17.502,152.07 30.004,280.614 37.506,385.631c7.501,-106.154 15.343,-200.487 23.526,-283.001l9.888,-102.63l151.389,0Z" style="fill-rule:nonzero;"/><path d="M517.244,973.115l-129.226,0l0,-30.346c0,-35.006 4.035,-61.999 12.105,-80.98c8.069,-18.98 24.265,-35.744 48.587,-50.292c24.322,-14.548 55.918,-21.822 94.788,-21.822c46.599,0 81.718,8.24 105.359,24.72c23.64,16.48 37.847,36.711 42.62,60.692c4.774,23.981 7.161,73.364 7.161,148.149l0,227.083l-134,0l0,-40.234c-8.41,16.139 -19.264,28.244 -32.562,36.313c-13.298,8.07 -29.152,12.104 -47.565,12.104c-24.094,0 -46.2,-6.762 -66.317,-20.287c-20.117,-13.525 -30.176,-43.132 -30.176,-88.821l0,-37.166c0,-33.869 5.342,-56.941 16.026,-69.216c10.683,-12.274 37.165,-26.595 79.445,-42.961c45.234,-17.73 69.443,-29.664 72.625,-35.802c3.182,-6.137 4.774,-18.639 4.774,-37.506c0,-23.64 -1.762,-39.04 -5.285,-46.201c-3.524,-7.16 -9.377,-10.74 -17.56,-10.74c-9.32,0 -15.116,3.012 -17.389,9.036c-2.273,6.023 -3.41,21.651 -3.41,46.882l0,47.395Zm43.644,62.055c-22.049,16.139 -34.836,29.664 -38.359,40.575c-3.523,10.911 -5.285,26.595 -5.285,47.053c0,23.413 1.534,38.529 4.603,45.349c3.069,6.819 9.149,10.229 18.242,10.229c8.638,0 14.264,-2.671 16.878,-8.013c2.614,-5.342 3.921,-19.378 3.921,-42.109l0,-93.084Z" style="fill-rule:nonzero;"/><path d="M886.168,797.858l-2.386,41.598c10.001,-16.593 22.219,-29.039 36.653,-37.335c14.435,-8.297 31.085,-12.446 49.952,-12.446c23.64,0 42.961,5.569 57.964,16.708c15.002,11.138 24.663,25.174 28.982,42.109c4.319,16.934 6.478,45.178 6.478,84.73l0,317.097l-137.75,0l0,-313.347c0,-31.141 -1.023,-50.122 -3.068,-56.941c-2.046,-6.819 -7.729,-10.229 -17.049,-10.229c-9.774,0 -15.911,3.921 -18.412,11.763c-2.5,7.843 -3.75,28.812 -3.75,62.908l0,305.846l-137.75,0l0,-452.461l140.136,0Z" style="fill-rule:nonzero;"/><path d="M1115.3,698.297l107.404,0c69.33,0 116.212,3.182 140.648,9.547c24.436,6.364 43.019,16.821 55.748,31.368c12.729,14.548 20.685,30.744 23.868,48.588c3.182,17.844 4.773,52.906 4.773,105.188l0,193.327c0,49.554 -2.33,82.684 -6.99,99.391c-4.66,16.708 -12.786,29.778 -24.379,39.211c-11.593,9.434 -25.913,16.026 -42.961,19.776c-17.049,3.751 -42.735,5.626 -77.059,5.626l-181.052,0l0,-552.022Zm143.546,94.447l0,363.128c20.686,0 33.415,-4.149 38.188,-12.445c4.774,-8.297 7.161,-30.858 7.161,-67.682l0,-214.467c0,-25.004 -0.796,-41.03 -2.387,-48.076c-1.591,-7.047 -5.228,-12.218 -10.911,-15.514c-5.683,-3.296 -16.366,-4.944 -32.051,-4.944Z" style="fill-rule:nonzero;"/><path d="M1809.16,1032.1l-178.325,0l0,97.857c0,20.457 1.478,33.641 4.433,39.551c2.955,5.911 8.638,8.866 17.048,8.866c10.456,0 17.446,-3.922 20.969,-11.764c3.524,-7.842 5.285,-23.015 5.285,-45.519l0,-59.668l130.59,0l0,33.414c0,27.959 -1.762,49.44 -5.285,64.443c-3.523,15.002 -11.763,31.027 -24.72,48.076c-12.957,17.048 -29.38,29.834 -49.269,38.358c-19.89,8.524 -44.837,12.786 -74.842,12.786c-29.096,0 -54.782,-4.205 -77.058,-12.615c-22.277,-8.411 -39.609,-19.947 -51.997,-34.608c-12.389,-14.662 -20.97,-30.801 -25.743,-48.417c-4.774,-17.617 -7.161,-43.246 -7.161,-76.888l0,-131.954c0,-39.551 5.342,-70.75 16.026,-93.594c10.683,-22.845 28.186,-40.348 52.508,-52.509c24.323,-12.161 52.282,-18.242 83.878,-18.242c38.643,0 70.523,7.331 95.641,21.993c25.117,14.661 42.734,34.096 52.849,58.305c10.115,24.208 15.173,58.248 15.173,102.119l0,60.01Zm-138.091,-73.649l0,-33.074c0,-23.413 -1.25,-38.529 -3.75,-45.348c-2.501,-6.819 -7.615,-10.229 -15.344,-10.229c-9.547,0 -15.457,2.898 -17.73,8.695c-2.273,5.796 -3.41,21.424 -3.41,46.882l0,33.074l40.234,0Z" style="fill-rule:nonzero;"/><path d="M1991.92,797.858l-5.455,59.328c20.003,-42.507 48.985,-65.01 86.946,-67.511l0,159.231c-25.231,0 -43.757,3.41 -55.577,10.229c-11.82,6.819 -19.094,16.309 -21.822,28.471c-2.728,12.161 -4.092,40.177 -4.092,84.047l0,178.666l-137.75,0l0,-452.461l137.75,0Z" style="fill-rule:nonzero;"/><path d="M2251.73,698.297l0,441.549l87.287,0l0,110.473l-230.833,0l0,-552.022l143.546,0Z" style="fill-rule:nonzero;"/><path d="M2681.69,1032.1l-178.325,0l0,97.857c0,20.457 1.478,33.641 4.433,39.551c2.955,5.911 8.637,8.866 17.048,8.866c10.456,0 17.446,-3.922 20.969,-11.764c3.524,-7.842 5.285,-23.015 5.285,-45.519l0,-59.668l130.59,0l0,33.414c0,27.959 -1.762,49.44 -5.285,64.443c-3.523,15.002 -11.763,31.027 -24.72,48.076c-12.957,17.048 -29.38,29.834 -49.27,38.358c-19.889,8.524 -44.836,12.786 -74.841,12.786c-29.096,0 -54.782,-4.205 -77.058,-12.615c-22.277,-8.411 -39.609,-19.947 -51.998,-34.608c-12.388,-14.662 -20.969,-30.801 -25.743,-48.417c-4.773,-17.617 -7.16,-43.246 -7.16,-76.888l0,-131.954c0,-39.551 5.342,-70.75 16.026,-93.594c10.683,-22.845 28.186,-40.348 52.508,-52.509c24.322,-12.161 52.282,-18.242 83.878,-18.242c38.642,0 70.523,7.331 95.64,21.993c25.118,14.661 42.735,34.096 52.85,58.305c10.115,24.208 15.173,58.248 15.173,102.119l0,60.01Zm-138.091,-73.649l0,-33.074c0,-23.413 -1.25,-38.529 -3.751,-45.348c-2.5,-6.819 -7.615,-10.229 -15.343,-10.229c-9.547,0 -15.457,2.898 -17.73,8.695c-2.273,5.796 -3.41,21.424 -3.41,46.882l0,33.074l40.234,0Z" style="fill-rule:nonzero;"/><path d="M3038.68,1032.1l-178.324,0l0,97.857c0,20.457 1.477,33.641 4.432,39.551c2.955,5.911 8.638,8.866 17.048,8.866c10.457,0 17.446,-3.922 20.97,-11.764c3.523,-7.842 5.285,-23.015 5.285,-45.519l0,-59.668l130.589,0l0,33.414c0,27.959 -1.761,49.44 -5.285,64.443c-3.523,15.002 -11.763,31.027 -24.72,48.076c-12.956,17.048 -29.379,29.834 -49.269,38.358c-19.89,8.524 -44.837,12.786 -74.842,12.786c-29.096,0 -54.782,-4.205 -77.058,-12.615c-22.276,-8.411 -39.609,-19.947 -51.997,-34.608c-12.389,-14.662 -20.97,-30.801 -25.743,-48.417c-4.774,-17.617 -7.16,-43.246 -7.16,-76.888l0,-131.954c0,-39.551 5.341,-70.75 16.025,-93.594c10.684,-22.845 28.187,-40.348 52.509,-52.509c24.322,-12.161 52.281,-18.242 83.877,-18.242c38.643,0 70.523,7.331 95.641,21.993c25.118,14.661 42.734,34.096 52.849,58.305c10.116,24.208 15.173,58.248 15.173,102.119l0,60.01Zm-138.09,-73.649l0,-33.074c0,-23.413 -1.251,-38.529 -3.751,-45.348c-2.501,-6.819 -7.615,-10.229 -15.344,-10.229c-9.547,0 -15.457,2.898 -17.73,8.695c-2.273,5.796 -3.409,21.424 -3.409,46.882l0,33.074l40.234,0Z" style="fill-rule:nonzero;"/><path d="M3364.99,942.428l-122.065,0l0,-24.55c0,-20.912 -1.194,-34.153 -3.581,-39.722c-2.386,-5.569 -8.353,-8.354 -17.9,-8.354c-7.729,0 -13.525,2.557 -17.39,7.672c-3.864,5.114 -5.796,12.786 -5.796,23.015c0,13.866 0.966,24.038 2.898,30.516c1.932,6.479 7.729,13.582 17.39,21.311c9.66,7.728 29.493,18.98 59.498,33.755c40.007,19.549 66.261,37.961 78.763,55.237c12.502,17.275 18.753,42.393 18.753,75.353c0,36.824 -4.774,64.613 -14.321,83.366c-9.547,18.753 -25.515,33.187 -47.905,43.302c-22.39,10.116 -49.383,15.173 -80.979,15.173c-35.006,0 -64.954,-5.455 -89.845,-16.366c-24.89,-10.911 -41.995,-25.686 -51.315,-44.325c-9.32,-18.64 -13.98,-46.826 -13.98,-84.56l0,-21.822l122.066,0l0,28.642c0,24.322 1.534,40.12 4.603,47.394c3.069,7.274 9.149,10.911 18.242,10.911c9.774,0 16.593,-2.444 20.458,-7.331c3.864,-4.887 5.796,-15.173 5.796,-30.858c0,-21.594 -2.5,-35.119 -7.501,-40.574c-5.228,-5.456 -31.937,-21.595 -80.127,-48.417c-40.461,-22.731 -65.124,-43.36 -73.99,-61.886c-8.865,-18.525 -13.297,-40.518 -13.297,-65.976c0,-36.143 4.773,-62.795 14.32,-79.957c9.547,-17.162 25.743,-30.402 48.588,-39.722c22.845,-9.32 49.383,-13.98 79.615,-13.98c30.005,0 55.521,3.808 76.547,11.423c21.026,7.615 37.165,17.673 48.417,30.175c11.252,12.502 18.071,24.095 20.458,34.778c2.387,10.684 3.58,27.391 3.58,50.122l0,26.255Z" style="fill-rule:nonzero;"/><path d="M3557.63,737.508l0,71.261l37.166,0l0,71.603l-37.166,0l0,242.085c0,29.778 1.535,46.372 4.603,49.781c3.069,3.41 15.855,5.115 38.359,5.115l0,72.966l-55.577,0c-31.369,0 -53.759,-1.307 -67.17,-3.921c-13.412,-2.614 -25.232,-8.638 -35.461,-18.071c-10.229,-9.433 -16.594,-20.231 -19.094,-32.392c-2.5,-12.161 -3.751,-40.745 -3.751,-85.752l0,-229.811l-29.663,0l0,-71.603l29.663,0l0,-71.261l138.091,0Z" style="fill-rule:nonzero;"/></g></svg>